<?xml version="1.0" encoding="UTF-8" standalone="no"?>
<svg xmlns="http://www.w3.org/2000/svg"
   xmlns:dc="http://purl.org/dc/elements/1.1/"
   xmlns:cc="http://creativecommons.org/ns#"
   xmlns:rdf="http://www.w3.org/1999/02/22-rdf-syntax-ns#"
   width="200" height="200.02023" version="1.0">
  <metadata>
    <rdf:RDF>
      <cc:Work rdf:about="">
        <dc:format>image/svg+xml</dc:format>
        <dc:type rdf:resource="http://purl.org/dc/dcmitype/StillImage" />
      </cc:Work>
    </rdf:RDF>
  </metadata>
  <g transform="translate(-69.34421,-65.855373)">
    <path d="M 245.42435,265.87561 C 258.61872,265.87561 269.34421,255.17036 269.34421,241.95575 L 269.34421,89.754999 C 269.34421,76.560625 258.63896,65.855373 245.42435,65.855373 L 93.223599,65.855373 C 80.029225,65.855373 69.34421,76.540388 69.34421,89.754999 L 69.34421,241.95575 C 69.34421,255.15012 80.008988,265.87561 93.223599,265.87561 L 245.42435,265.87561 z" />
    <path style="fill:#ffffff"
       d="M 248.81291,224.66505 C 245.35312,224.66505 242.01473,223.87597 239.04052,222.54062 C 236.00562,221.12433 232.56607,220.29479 228.98488,220.29479 C 225.4037,220.29479 221.96415,221.12433 218.92924,222.54062 C 215.95504,223.87597 212.61665,224.66505 209.15686,224.66505 C 205.69707,224.66505 202.33845,223.87597 199.38448,222.54062 C 196.34958,221.12433 192.91002,220.29479 189.30861,220.29479 C 185.74766,220.29479 182.3081,221.12433 179.25297,222.54062 C 176.299,223.87597 172.94037,224.66505 169.48058,224.66505 C 166.0208,224.66505 162.68241,223.87597 159.72843,222.54062 C 156.6733,221.12433 153.25398,220.29479 149.65256,220.29479 C 146.07138,220.29479 142.65206,221.12433 139.59692,222.54062 C 136.62272,223.87597 133.28433,224.66505 129.82454,224.66505 C 126.36475,224.66505 123.02636,223.87597 120.05216,222.54062 C 117.01726,221.12433 113.5777,220.29479 109.99652,220.29479 C 106.3951,220.29479 102.97578,221.12433 99.940884,222.54062 C 96.966679,223.87597 93.628289,224.66505 90.168499,224.66505 L 90.168499,209.99636 C 93.648519,209.99636 96.966679,209.20728 99.940884,207.87193 C 102.97578,206.4961 106.3951,205.66656 109.99652,205.66656 C 113.5777,205.66656 117.01726,206.4961 120.05216,207.87193 C 123.02636,209.20728 126.36475,209.99636 129.82454,209.99636 C 133.28433,209.99636 136.62272,209.20728 139.59692,207.87193 C 142.65206,206.4961 146.07138,205.66656 149.65256,205.66656 C 153.25398,205.66656 156.6733,206.4961 159.72843,207.87193 C 162.68241,209.20728 166.04103,209.99636 169.48058,209.99636 C 172.9606,209.99636 176.299,209.20728 179.25297,207.87193 C 182.3081,206.4961 185.74766,205.66656 189.30861,205.66656 C 192.91002,205.66656 196.34958,206.4961 199.38448,207.87193 C 202.33845,209.20728 205.69707,209.99636 209.15686,209.99636 C 212.61665,209.99636 215.95504,209.20728 218.92924,207.87193 C 221.96415,206.4961 225.4037,205.66656 228.98488,205.66656 C 232.56607,205.66656 236.00562,206.4961 239.04052,207.87193 C 242.01473,209.20728 245.37335,209.99636 248.81291,209.99636 L 248.81291,224.66505 z" />
    <path style="fill:#ffffff"
       d="M 149.96654,84.562092 C 143.77568,84.421877 138.16562,86.904198 135.65404,91.812092 C 137.88375,93.865062 141.42111,89.972852 144.15404,92.499592 C 144.52736,94.434132 141.85133,93.323159 142.93529,95.968342 C 146.37808,95.257702 150.5573,94.862889 154.37279,95.968342 C 154.80196,97.310672 154.18063,97.517476 154.56029,98.780842 C 157.72712,99.767852 160.53927,101.4299 162.40404,105.06209 C 143.59376,98.034602 123.43587,104.42972 129.40404,128.74959 C 132.85195,127.1309 132.67489,121.99328 136.12279,120.37459 C 137.04147,121.44056 137.40536,123.54241 138.93529,123.18709 C 141.05089,120.26555 142.33088,116.55733 146.34154,115.53084 C 146.76252,117.18901 145.96802,117.54693 146.87279,119.71834 C 150.61955,118.92874 154.28404,113.1552 159.15404,116.90584 C 153.02799,118.9983 143.71789,125.94227 143.81029,134.31209 C 143.84014,136.28611 144.38804,141.34476 147.49779,142.68709 C 148.5736,139.96295 148.83145,136.41265 151.27904,135.03084 C 152.92351,135.93889 153.34385,139.21834 155.43529,139.21834 C 156.4078,135.50719 156.37187,130.77788 159.09154,128.84334 C 160.25857,128.56698 159.5807,132.04254 161.18529,130.93709 C 162.72239,128.17347 163.02615,124.07868 166.49779,123.24959 C 160.6785,136.66175 158.40431,153.60944 162.18529,176.62459 C 145.44091,181.42467 136.68143,196.88528 133.34154,204.06209 C 135.84596,203.77116 138.23191,203.05136 140.43529,202.06209 C 143.49043,200.68626 146.91661,199.87459 150.49779,199.87459 C 154.09921,199.87459 157.50516,200.68626 160.56029,202.06209 C 163.51427,203.39744 166.87074,204.18709 170.31029,204.18709 C 173.79031,204.18709 177.13757,203.39744 180.09154,202.06209 C 183.14667,200.68626 186.5931,199.87459 190.15404,199.87459 C 193.75546,199.87459 197.18164,200.68626 200.21654,202.06209 C 202.71999,203.19378 205.53531,203.92539 208.43529,204.12459 C 205.69107,195.5411 196.77511,175.54418 173.34154,175.18709 C 169.86199,154.94111 168.38038,136.71504 175.18529,126.74959 C 176.46604,129.47373 174.84091,131.56197 177.12279,132.31209 C 178.10879,131.20664 179.96718,130.96847 181.27904,130.21834 C 182.50762,134.24534 182.86167,137.31506 181.99779,139.24959 C 183.8816,140.86829 183.90357,137.32187 186.34154,137.87459 C 189.48951,144.70469 185.94979,149.68825 188.49779,152.53084 C 195.6168,148.7802 201.19684,132.92097 189.37279,121.15584 C 192.2872,120.80051 194.09886,122.81531 196.65404,123.24959 C 197.56476,122.77582 195.54413,119.3697 196.62279,119.09334 C 199.85098,120.55411 202.90454,122.39865 205.12279,126.03084 C 207.03054,126.58357 205.08015,123.18697 207.18529,123.93709 C 208.69863,126.06903 209.61701,129.49278 211.52904,130.87459 C 215.14043,124.79462 210.75701,111.56259 203.27904,108.56209 C 197.20805,106.11431 192.09216,109.49328 185.96654,107.87459 C 187.29354,106.2559 190.82619,104.59643 193.24779,105.78084 C 193.02566,102.70138 190.88061,103.44081 190.43529,100.87459 C 194.01084,101.15095 195.86058,97.486091 199.43529,99.499592 C 200.14677,98.473102 197.81716,96.583564 199.59154,96.030842 C 202.5667,96.030842 205.46014,96.030844 208.43529,96.030842 C 195.7963,80.475602 176.70086,91.69189 173.12279,102.31209 C 169.33067,90.544495 159.01472,84.767021 149.96654,84.562092 z" />
  </g>
</svg>
