<?xml version="1.0" encoding="UTF-8" standalone="no"?>
<svg xmlns="http://www.w3.org/2000/svg" xml:space="preserve" viewBox="0 0 512 512">
  <path d="M263.372 472.01c-8.823 0-15.482-6.593-19.792-19.594-2.444-7.256-12.209-11.846-19.34-15.197-3.167-1.488-5.902-2.774-8.014-4.299-4.933-3.582-11.45-9.274-11.313-17.488.149-8.937 7.565-13.953 14.737-18.804 6.55-4.431 13.324-9.013 14.421-15.515.993-5.886-2.411-14.253-9.842-24.195-.829-1.109-1.387-1.783-1.738-2.179-2.539-.552-5.711-1.589-10.683-5.193-15.03-10.835-13.328-25.94-11.826-39.267.3-2.662.606-5.375.811-8.139-1.965-.641-3.808-1.104-5.618-1.56-5.935-1.493-12.661-3.186-16.972-10.783-2.762-4.868-4.125-11.555-4.508-22.818-3.646-.708-6.902-1.238-9.907-1.728-9.455-1.54-16.924-2.758-23.043-8.035-4.771-4.114-7.713-9.819-10.056-17.293-1.013.519-2.066 1.107-3.214 1.748-5.548 3.095-12.454 6.948-23.178 6.948-8.886 0-14.128-.096-18.538-2.052-5.38-2.387-7.57-6.638-9.472-10.9-10.328-.602-17.616-3.181-25.132-11.5-8.865-9.815-14.77-32.405-8.853-51.791 4.91-16.086 17.043-27.29 34.164-31.547 3.293-.817 5.02-1.59 5.866-2.07-.497-1.607-1.868-4.336-2.835-6.261-2.866-5.706-6.434-12.807-6.434-21.121 0-5.411 2.319-9.038 3.853-11.438.485-.759.943-1.475 1.103-1.917.013-.038.027-.076.042-.114.08-.24.258-1.075.389-1.685 1.495-6.983 4.998-23.334 33.154-23.334 3.818 0 8.059 1.805 15.846 5.264 1.154.513 2.571 1.142 4.077 1.792-2.907-9.228-.962-15.95 1.577-20.273 4.074-6.936 11.555-10.565 16.84-10.565 21.917 0 28.171-3.411 32.31-5.668 2.818-1.538 6.327-3.451 11.575-3.451 6.419 0 11.57 1.963 15.311 5.834 6.519 6.747 6.175 16.713 5.899 24.721-.079 2.298-.2 5.803.041 7.897 1.988-.261 6.189-1.337 14.148-5.304 5.536-2.757 11.467-4.096 18.134-4.096 2.769 0 5.197.226 7.153.41 4.971-6.89 15.313-18.608 28.134-18.608 11.191 0 19.914 8.193 25.923 24.353 7.57 20.337 15.213 30.65 22.711 30.65 1.895 0 3.979-.413 6.183-.85 2.577-.511 5.243-1.041 8.133-1.041 11.726 0 17.073 8.92 19.706 16.317 21.51-.243 46.427 1.339 61.895 20.521 5.188 6.407 6.71 11.167 7.62 14.01.045.141.095.298.146.453 1.028.428 3.431 1.221 8.925 2.395 17.748 3.787 24.345 13.363 26.754 20.729 7.575 23.164-16.032 51.232-20.842 56.623-.21.236-.433.461-.667.675l-28.523 26.04c.034 6.033.139 10.679.226 14.545.384 17.086.113 18.428-7.228 35.881-1.646 3.914-3.694 8.786-6.226 15.035-14.34 35.415-27.709 38.342-46.468 38.764-6.585.148-13.395.303-21.498 3.747-13.022 5.525-12.16 9.771-10.967 15.646.371 1.825.754 3.712.754 5.72 0 17.466-12.66 31.324-26.063 45.998-5.083 5.564-10.34 11.319-14.966 17.355-9.496 12.343-16.91 17.602-24.805 17.602zm-38.806-56.134c.583.535 1.399 1.212 2.53 2.034.69.498 3.095 1.629 5.027 2.536 8.997 4.229 24.053 11.305 29.034 26.097 1.186 3.575 2.224 5.485 2.873 6.449 1.434-.912 4.444-3.367 9.445-9.868 5.103-6.658 10.633-12.713 15.983-18.569 11.356-12.433 21.169-23.174 21.213-33.428-.033-.382-.235-1.373-.383-2.103-1.517-7.468-5.067-24.957 21.884-36.394 11.373-4.834 20.772-5.045 28.325-5.216 7.016-.157 10.846-.356 14.494-2.845 4.979-3.397 9.956-11.36 15.214-24.346 2.577-6.365 4.652-11.3 6.32-15.265 6.092-14.485 6.092-14.485 5.782-28.28-.107-4.787-.241-10.747-.241-19.037 0-2.604 1.096-5.088 3.019-6.844l31.193-28.478c10.396-11.787 19.735-29.047 16.75-38.18-1.305-3.987-5.682-6.802-13.009-8.366-14.458-3.088-19.787-5.736-22.854-15.326-.675-2.109-1.371-4.29-4.382-8.008-9.682-12.006-26.779-13.659-43.816-13.659-3.574 0-7.22.08-10.436.15-.068.001-.137.002-.205.002-4.298 0-8.044-2.962-9.022-7.166-1.556-6.681-3.078-8.782-3.517-9.275-.052-.002-.115-.004-.19-.004-1.07 0-2.75.333-4.528.686-2.705.537-6.071 1.204-9.785 1.205-16.722.001-29.083-13.174-40.083-42.72-3.155-8.486-6.568-12.283-8.553-12.283-4.154 0-11.586 8.089-15.086 13.89-.77 1.274-1.835 2.346-3.106 3.122-1.988 1.214-4.335 1.804-7.173 1.804-1.432 0-2.898-.137-4.45-.283-1.744-.164-3.547-.333-5.472-.333-3.787 0-6.922.684-9.871 2.152-10.022 4.996-17.468 7.324-23.429 7.325-6.352.001-10.255-2.659-12.411-4.89-5.698-5.897-5.399-14.587-5.135-22.255.115-3.342.327-9.501-.67-11.142-.211-.077-.804-.243-2.018-.243-.415 0-.61.047-2.702 1.188-7.281 3.97-16.403 7.848-40.409 7.929-.445.207-1.39.749-1.816 1.786-.796 1.94.121 5.593 2.451 9.772 1.63 2.941 5.93 10.698 1.984 17.397-1.021 1.731-4.119 5.758-10.848 5.758-5.782 0-12.688-2.875-22.563-7.262-2.909-1.292-7.222-3.208-8.878-3.666-12.638.102-13.412 3.711-14.476 8.681-.297 1.386-.604 2.818-1.14 4.263-.861 2.363-2.039 4.206-2.9 5.553-.337.526-.787 1.231-.935 1.56.04 3.896 2.287 8.369 4.461 12.697 3.374 6.716 7.199 14.328 3.52 22.327-3.575 7.775-12.353 10.749-18.644 12.31-10.852 2.698-17.887 9.082-20.906 18.971-3.977 13.028.234 28.813 4.879 33.956 3.787 4.19 5.974 5.545 17.423 5.545 3.562 0 6.808 2.042 8.352 5.252.865 1.801 1.562 3.38 2.121 4.648.381.866.827 1.875 1.168 2.569 2.245.328 7.389.328 10.327.328 5.904 0 9.542-2.03 14.148-4.6 4.775-2.665 10.188-5.684 17.962-6.35 4.586-.395 8.772 2.645 9.816 7.132 2.255 9.691 4.298 14.908 6.625 16.915 2.158 1.861 6.837 2.624 13.919 3.777 4.852.79 10.89 1.774 18.177 3.47 4.197.977 7.166 4.717 7.166 9.025 0 14.299 1.203 19.419 2.211 21.196.329.58 1.283.927 5.375 1.956 3.678.926 8.716 2.193 14.612 5.018 3.216 1.541 5.262 4.791 5.262 8.357 0 5.958-.624 11.49-1.173 16.372-1.504 13.346-1.505 18.01 4.268 22.171 2.58 1.871 3.369 2.027 4.065 2.166 4.965.983 7.849 3.117 12.343 9.131 10.84 14.502 15.181 27.054 13.272 38.373-2.417 14.325-13.916 22.104-22.313 27.782-1.679 1.141-3.944 2.673-5.465 3.901z"/>
  <path d="M426.49 167.034H194.83c-5.118 0-9.267-4.148-9.267-9.266s4.148-9.267 9.267-9.267h231.66c5.117 0 9.267 4.148 9.267 9.267 0 5.118-4.15 9.266-9.267 9.266zm-83.397 111.197h-157.53c-5.118 0-9.267-4.149-9.267-9.267s4.149-9.267 9.267-9.267h157.529c5.117 0 9.267 4.149 9.267 9.267s-4.149 9.267-9.266 9.267zM268.961 204.1H55.834c-5.118 0-9.267-4.149-9.267-9.267s4.148-9.266 9.267-9.266h213.127c5.117 0 9.267 4.148 9.267 9.266s-4.15 9.267-9.267 9.267zm18.531 129.73c-5.084 0-9.225-4.102-9.265-9.195-.039-5.117 4.077-9.298 9.195-9.338l111.301-.861h.073c5.084 0 9.225 4.101 9.265 9.194.039 5.118-4.078 9.299-9.195 9.338l-111.301.862h-.073zm9.271-129.731c-2.438 0-4.827-.991-6.561-2.715-1.724-1.724-2.705-4.115-2.705-6.552s.981-4.828 2.705-6.551c1.733-1.724 4.114-2.715 6.561-2.715 2.438 0 4.828.992 6.551 2.715 1.725 1.723 2.716 4.114 2.716 6.551s-.991 4.828-2.716 6.552c-1.723 1.723-4.114 2.715-6.551 2.715zm74.132 74.131c-2.438 0-4.828-.992-6.552-2.716-1.724-1.723-2.715-4.114-2.715-6.551 0-2.438.991-4.828 2.715-6.552s4.104-2.715 6.552-2.715c2.437 0 4.828.991 6.551 2.715 1.724 1.724 2.716 4.114 2.716 6.552 0 2.437-.992 4.828-2.716 6.551-1.734 1.724-4.115 2.716-6.551 2.716z"/>
</svg>